<?xml version="1.0" encoding="utf-8"?>
<!-- Generator: Adobe Illustrator 16.0.0, SVG Export Plug-In . SVG Version: 6.00 Build 0)  -->
<!DOCTYPE svg PUBLIC "-//W3C//DTD SVG 1.1//EN" "http://www.w3.org/Graphics/SVG/1.1/DTD/svg11.dtd">
<svg version="1.1" id="Layer_1" xmlns="http://www.w3.org/2000/svg" xmlns:xlink="http://www.w3.org/1999/xlink" x="0px" y="0px"
	 width="250.5px" height="59.3px" viewBox="0 0 250.5 59.3" enable-background="new 0 0 250.5 59.3" xml:space="preserve">
<g>
	<path fill="#2B85BB" d="M70.4,32.7c0,1.6,0.7,2.1,2.6,2.1h3.1c1.8,0,2.5-0.5,2.5-2.1v-7.3h2.8V33c0,3.1-1.2,4.2-4.8,4.2h-4.2
		c-3.5,0-4.8-1.2-4.8-4.2v-7.6h2.8V32.7z"/>
	<path fill="#2B85BB" d="M83.6,32.3v-1.5c0-4.6,1.2-5.4,5.6-5.4h2.5c4.6,0,5.8,0.7,5.8,4h-2.9c0-0.9-0.3-1.4-3-1.4h-2.2
		c-2.5,0-3,0.2-3,2.7V32c0,2.3,0.4,2.6,2.9,2.6h2.3c2.5,0,3-0.2,3-1.5h2.9c0,3.1-0.8,4.1-5.8,4.1h-2.6
		C84.8,37.2,83.6,36.2,83.6,32.3z"/>
	<path fill="#2B85BB" d="M109.1,25.4c3,0,4.4,1.1,4.4,3.3h-3c0-0.7-0.3-1-1.4-1h-4.7c-0.8,0-1.4,0.2-1.4,1.1c0,0.9,0.6,1,1.4,1
		l5.2,0.2c2.7,0.1,4,0.4,4,3.6c0,2.5-1,3.6-4,3.6h-5.8c-3,0-4-1.1-4-3.3h2.9c0,0.6,0.6,1,1.4,1h4.7c1.2,0,1.9-0.2,1.9-1.2
		c0-0.8-0.4-1.2-2-1.3l-4.5-0.2c-3.2-0.1-4.4-0.4-4.4-3.3c0-2.5,1.2-3.4,4.2-3.4L109.1,25.4L109.1,25.4z"/>
	<path fill="#2B85BB" d="M128.2,25.4v2.3h-9.2v2.2h8.9v2.4h-8.9v4.9h-2.8V25.4H128.2z"/>
	<path fill="#2B85BB" d="M141.7,25.4v9.4h7.3v2.4h-10.1V25.4H141.7z"/>
	<path fill="#2B85BB" d="M151.5,25.4h2.8v11.8h-2.8V25.4z"/>
	<path fill="#2B85BB" d="M169.8,28.4c0,2-0.3,2.3-1,2.6c0.9,0.2,1.6,0.7,1.6,2.8c0,2.5-0.8,3.5-3.3,3.5h-10V25.4h9
		C168.9,25.4,169.8,26.3,169.8,28.4z M165.7,29.8c0.7,0,1.2-0.2,1.2-1c0-0.8-0.4-1.1-1.2-1.1H160v2.1H165.7z M166.2,34.8
		c0.9,0,1.4-0.4,1.4-1.4c0-1-0.5-1.2-1.5-1.2H160v2.6H166.2z"/>
	<path fill="#2B85BB" d="M185.8,37.2h-2.8v-1.8c0-1.2-0.6-1.7-1.9-1.7h-5.6v3.5h-2.8V25.4h8.8c3.1,0,4.3,1,4.3,3.8V30
		c0,1.3-0.2,2-0.9,2.5c0.6,0.2,1.1,0.9,1.1,2.2V37.2L185.8,37.2z M182.8,29.5c0-0.9-0.4-1.2-1.4-1.2h-6v2.7h6.1c1,0,1.3-0.3,1.3-1.2
		L182.8,29.5L182.8,29.5z"/>
	<path fill="#2B85BB" d="M197.8,25.4l6.1,11.8h-3.3l-1.4-2.8H192l-1.4,2.8h-3.3l6.1-11.8H197.8z M195.6,27.6l-2.3,4.4h4.7l-2.2-4.4
		H195.6z"/>
	<path fill="#2B85BB" d="M218.4,37.2h-2.8v-1.8c0-1.2-0.6-1.7-1.9-1.7h-5.6v3.5h-2.8V25.4h8.8c3.1,0,4.3,1,4.3,3.8V30
		c0,1.3-0.2,2-0.9,2.5c0.6,0.2,1.1,0.9,1.1,2.2V37.2L218.4,37.2z M215.5,29.5c0-0.9-0.4-1.2-1.4-1.2h-6v2.7h6.1c1,0,1.3-0.3,1.3-1.2
		L215.5,29.5L215.5,29.5z"/>
	<path fill="#2B85BB" d="M226.3,30.7l3.8-5.3h3.2l-5.7,7.8v4h-2.8v-4l-5.8-7.8h3.4L226.3,30.7z"/>
</g>
<g>
	<path fill="#2B85BB" d="M83.3,50c-0.4,0.4-0.8,0.5-1.6,0.5c-1.4,0-1.7-0.7-1.7-1.7c0-1.1,0.2-1.7,1.7-1.7c1,0,1.2,0.1,1.5,0.5h0v-1
		c0-0.8-0.1-1.1-1.2-1.1c-1.1,0-1.1,0.3-1.1,1h-0.7v-0.3c0-0.7,0.2-1.3,1.8-1.3c1.5,0,1.8,0.5,1.8,1.5v3.9h-0.6L83.3,50L83.3,50z
		 M82,49.9c0.9,0,1.3-0.2,1.3-1c0-0.8-0.4-1-1.3-1c-0.9,0-1.3,0.2-1.3,1C80.7,49.7,81.1,49.9,82,49.9z"/>
	<path fill="#2B85BB" d="M85.2,45.1h0.7v0.7h0c0.3-0.6,0.7-0.8,1.5-0.8c1.2,0,1.6,0.6,1.6,1.7v3.8h-0.7v-3.6c0-0.6-0.1-1.2-1-1.2
		c-0.8,0-1.4,0.3-1.4,1.4v3.4h-0.7L85.2,45.1L85.2,45.1z"/>
	<path fill="#2B85BB" d="M93.5,49.8L93.5,49.8c-0.3,0.5-0.6,0.8-1.4,0.8c-1.5,0-1.9-0.7-1.9-2.8S90.6,45,92,45
		c0.6,0,1.1,0.1,1.5,0.8h0v-2.9h0.7v7.6h-0.7V49.8z M92.2,49.9c1.1,0,1.3-0.4,1.3-2.4c0-1.3-0.3-1.8-1.3-1.8c-1,0-1.3,0.2-1.3,2.1
		C91,49.6,91.2,49.9,92.2,49.9z"/>
	<path fill="#2B85BB" d="M103.7,48.5c0,1.6-0.5,2-2.4,2c-2,0-2.7-0.4-2.7-2.6v-2.6c0-2.2,0.7-2.6,2.7-2.6c1.7,0,2.4,0.2,2.4,2v0.5
		h-0.7v-0.5c0-1.2-0.4-1.3-1.7-1.3c-1.7,0-2,0.2-2,1.9v2.5c0,1.7,0.2,1.9,2,1.9c1.5,0,1.7-0.3,1.7-1.4v-0.5h0.7V48.5z"/>
	<path fill="#2B85BB" d="M105.6,47.9v0.5c0,1.2,0.2,1.5,1.1,1.5c1.1,0,1.3,0,1.3-1.1h0.7v0.2c0,1.1-0.3,1.5-1.9,1.5
		c-1.8,0-2-0.6-2-2.8c0-2.2,0.4-2.8,2-2.8c1.6,0,1.9,0.7,1.9,2.1v0.8L105.6,47.9L105.6,47.9z M108,47.3c0-1.1,0-1.6-1.2-1.6
		c-1.2,0-1.2,0.5-1.2,1.6H108z"/>
	<path fill="#2B85BB" d="M110,45.1h0.7v0.7h0c0.3-0.6,0.7-0.8,1.5-0.8c1.2,0,1.6,0.6,1.6,1.7v3.8h-0.7v-3.6c0-0.6-0.1-1.2-1-1.2
		c-0.8,0-1.4,0.3-1.4,1.4v3.4H110V45.1z"/>
	<path fill="#2B85BB" d="M115.3,45.7h-0.6v-0.6h0.6v-1.2h0.7v1.2h1.7v0.6h-1.7v3.6c0,0.4,0.1,0.6,0.6,0.6c0.5,0,0.7-0.1,0.7-1.3h0.6
		c0,1.7-0.5,1.9-1.3,1.9c-1,0-1.3-0.3-1.3-1.1L115.3,45.7L115.3,45.7z"/>
	<path fill="#2B85BB" d="M119.4,47.9v0.5c0,1.2,0.2,1.5,1.1,1.5c1.1,0,1.3,0,1.3-1.1h0.7v0.2c0,1.1-0.3,1.5-1.9,1.5
		c-1.8,0-2-0.6-2-2.8c0-2.2,0.4-2.8,2-2.8c1.6,0,1.9,0.7,1.9,2.1v0.8L119.4,47.9L119.4,47.9z M121.9,47.3c0-1.1,0-1.6-1.2-1.6
		c-1.2,0-1.2,0.5-1.2,1.6H121.9z"/>
	<path fill="#2B85BB" d="M123.9,45.1h0.7v0.6h0c0.3-0.5,0.6-0.7,1.2-0.7c0.9,0,1.2,0.4,1.2,1.4v0.4h-0.6c0-1-0.1-1.3-0.9-1.3
		c-0.7,0-1,0.4-1,1.1v3.7h-0.7V45.1z"/>
	<path fill="#2B85BB" d="M131.5,45.7h-0.7v-0.6h0.7v-1c0-1,0.5-1.4,1.4-1.4c0.2,0,0.3,0,0.5,0v0.6c-0.1,0-0.3,0-0.4,0
		c-0.4,0-0.8,0.1-0.8,0.8v1h1.2v0.6h-1.2v4.7h-0.7V45.7L131.5,45.7z"/>
	<path fill="#2B85BB" d="M135.9,45c1.8,0,2,0.6,2,2.8c0,2.2-0.2,2.8-2,2.8c-1.7,0-2-0.5-2-2.8C133.9,45.7,134.1,45,135.9,45z
		 M135.9,49.9c1.1,0,1.2-0.2,1.2-2.2c0-2-0.2-2.2-1.2-2.2c-1.1,0-1.2,0.2-1.2,2.2C134.7,49.8,134.8,49.9,135.9,49.9z"/>
	<path fill="#2B85BB" d="M139.1,45.1h0.7v0.6h0c0.3-0.5,0.6-0.7,1.2-0.7c0.9,0,1.2,0.4,1.2,1.4v0.4h-0.6c0-1-0.1-1.3-0.9-1.3
		c-0.7,0-1,0.4-1,1.1v3.7h-0.7V45.1L139.1,45.1z"/>
	<path fill="#2B85BB" d="M146.4,42.9h0.7v3.3h0.7l2.6-3.3h0.9l-2.9,3.7l3.2,3.9h-0.9l-2.9-3.6h-0.6v3.6h-0.7L146.4,42.9L146.4,42.9z
		"/>
	<path fill="#2B85BB" d="M152.2,45.1h0.7v0.7h0c0.3-0.6,0.7-0.8,1.5-0.8c1.2,0,1.6,0.6,1.6,1.7v3.8h-0.7v-3.6c0-0.6-0.1-1.2-1-1.2
		c-0.8,0-1.4,0.3-1.4,1.4v3.4h-0.7L152.2,45.1L152.2,45.1z"/>
	<path fill="#2B85BB" d="M159.1,45c1.8,0,2,0.6,2,2.8c0,2.2-0.2,2.8-2,2.8c-1.7,0-2-0.5-2-2.8C157.2,45.7,157.4,45,159.1,45z
		 M159.1,49.9c1.1,0,1.2-0.2,1.2-2.2c0-2-0.2-2.2-1.2-2.2c-1.1,0-1.2,0.2-1.2,2.2C157.9,49.8,158.1,49.9,159.1,49.9z"/>
	<path fill="#2B85BB" d="M161.9,45.1h0.7l1.1,4.7h0l1-4.7h1l1,4.7h0l1.1-4.7h0.7l-1.3,5.4h-1l-1-4.7h0l-1,4.7h-1L161.9,45.1z"/>
	<path fill="#2B85BB" d="M169.3,42.9h0.7v7.6h-0.7V42.9z"/>
	<path fill="#2B85BB" d="M172.2,47.9v0.5c0,1.2,0.2,1.5,1.1,1.5c1.1,0,1.3,0,1.3-1.1h0.7v0.2c0,1.1-0.3,1.5-1.9,1.5
		c-1.8,0-2-0.6-2-2.8c0-2.2,0.4-2.8,2-2.8c1.6,0,1.9,0.7,1.9,2.1v0.8L172.2,47.9L172.2,47.9z M174.6,47.3c0-1.1,0-1.6-1.2-1.6
		s-1.2,0.5-1.2,1.6H174.6z"/>
	<path fill="#2B85BB" d="M179.8,49.8L179.8,49.8c-0.3,0.5-0.6,0.8-1.4,0.8c-1.5,0-1.9-0.7-1.9-2.8s0.4-2.8,1.8-2.8
		c0.6,0,1.1,0.1,1.5,0.8h0v-2.9h0.7v7.6h-0.7V49.8L179.8,49.8z M178.5,49.9c1.1,0,1.3-0.4,1.3-2.4c0-1.3-0.3-1.8-1.3-1.8
		c-1,0-1.3,0.2-1.3,2.1C177.2,49.6,177.5,49.9,178.5,49.9z"/>
	<path fill="#2B85BB" d="M185.1,49.5L185.1,49.5c-0.3,0.6-0.8,0.8-1.4,0.8c-1.7,0-1.8-1.1-1.8-2.6c0-1.5,0.1-2.6,1.8-2.6
		c0.7,0,1.1,0.2,1.4,0.8h0v-0.7h0.7v5.3c0,1.6-0.5,2-2.1,2c-1,0-1.7-0.4-1.7-1.5h0.7c0,0.6,0.3,0.8,1.1,0.8c1.1,0,1.3-0.2,1.3-1.5
		V49.5L185.1,49.5z M183.8,49.6c1.1,0,1.4-0.4,1.4-2s-0.3-2-1.4-2c-1.1,0-1.2,0.5-1.2,2S182.7,49.6,183.8,49.6z"/>
	<path fill="#2B85BB" d="M187.7,47.9v0.5c0,1.2,0.2,1.5,1.1,1.5c1.1,0,1.3,0,1.3-1.1h0.7v0.2c0,1.1-0.3,1.5-1.9,1.5
		c-1.8,0-2-0.6-2-2.8c0-2.2,0.4-2.8,2-2.8c1.6,0,1.9,0.7,1.9,2.1v0.8L187.7,47.9L187.7,47.9z M190.2,47.3c0-1.1,0-1.6-1.2-1.6
		c-1.2,0-1.2,0.5-1.2,1.6H190.2z"/>
	<path fill="#2B85BB" d="M195.4,42.9h1.2l2.3,6.7h0l2.3-6.7h1.2v7.6h-0.7v-6.8h0l-2.4,6.8h-0.8l-2.4-6.8h0v6.8h-0.7L195.4,42.9
		L195.4,42.9z"/>
	<path fill="#2B85BB" d="M207,50c-0.4,0.4-0.8,0.5-1.6,0.5c-1.4,0-1.7-0.7-1.7-1.7c0-1.1,0.2-1.7,1.7-1.7c1,0,1.2,0.1,1.5,0.5h0v-1
		c0-0.8-0.1-1.1-1.2-1.1c-1.1,0-1.1,0.3-1.1,1H204v-0.3c0-0.7,0.2-1.3,1.8-1.3c1.5,0,1.8,0.5,1.8,1.5v3.9H207V50z M205.7,49.9
		c0.9,0,1.3-0.2,1.3-1c0-0.8-0.4-1-1.3-1c-0.9,0-1.3,0.2-1.3,1C204.5,49.7,204.8,49.9,205.7,49.9z"/>
	<path fill="#2B85BB" d="M209,45.1h0.7v0.7h0c0.3-0.6,0.7-0.8,1.5-0.8c1.2,0,1.6,0.6,1.6,1.7v3.8H212v-3.6c0-0.6-0.1-1.2-1-1.2
		c-0.8,0-1.4,0.3-1.4,1.4v3.4H209V45.1L209,45.1z"/>
	<path fill="#2B85BB" d="M217.2,50c-0.4,0.4-0.8,0.5-1.6,0.5c-1.4,0-1.7-0.7-1.7-1.7c0-1.1,0.2-1.7,1.7-1.7c1,0,1.2,0.1,1.5,0.5h0
		v-1c0-0.8-0.1-1.1-1.2-1.1c-1.1,0-1.1,0.3-1.1,1h-0.7v-0.3c0-0.7,0.2-1.3,1.8-1.3c1.5,0,1.8,0.5,1.8,1.5v3.9h-0.6L217.2,50
		L217.2,50z M215.9,49.9c0.9,0,1.3-0.2,1.3-1c0-0.8-0.4-1-1.3-1s-1.3,0.2-1.3,1C214.6,49.7,215,49.9,215.9,49.9z"/>
	<path fill="#2B85BB" d="M222.4,49.5L222.4,49.5c-0.3,0.6-0.8,0.8-1.4,0.8c-1.7,0-1.8-1.1-1.8-2.6c0-1.5,0.1-2.6,1.8-2.6
		c0.7,0,1.1,0.2,1.4,0.8h0v-0.7h0.7v5.3c0,1.6-0.5,2-2.1,2c-1,0-1.7-0.4-1.7-1.5h0.7c0,0.6,0.3,0.8,1.1,0.8c1.1,0,1.3-0.2,1.3-1.5
		L222.4,49.5L222.4,49.5z M221,49.6c1.1,0,1.4-0.4,1.4-2s-0.3-2-1.4-2c-1.1,0-1.2,0.5-1.2,2S219.9,49.6,221,49.6z"/>
	<path fill="#2B85BB" d="M225,47.9v0.5c0,1.2,0.2,1.5,1.1,1.5c1.1,0,1.3,0,1.3-1.1h0.7v0.2c0,1.1-0.3,1.5-1.9,1.5
		c-1.8,0-2-0.6-2-2.8c0-2.2,0.4-2.8,2-2.8c1.6,0,1.9,0.7,1.9,2.1v0.8L225,47.9L225,47.9z M227.4,47.3c0-1.1,0-1.6-1.2-1.6
		c-1.2,0-1.2,0.5-1.2,1.6H227.4z"/>
	<path fill="#2B85BB" d="M229.4,45.1h0.7v0.8h0c0.3-0.6,0.7-0.9,1.4-0.9c0.7,0,1.3,0.2,1.5,0.9c0.4-0.7,0.9-0.9,1.6-0.9
		c1.1,0,1.6,0.5,1.6,1.6v3.9h-0.7V47c0-1.1-0.4-1.3-1.1-1.3c-0.9,0-1.3,0.3-1.3,1.4v3.4h-0.7v-3.7c0-0.8-0.3-1.1-1.1-1.1
		c-1,0-1.4,0.6-1.4,1.7v3.1h-0.7L229.4,45.1L229.4,45.1z"/>
	<path fill="#2B85BB" d="M238.2,47.9v0.5c0,1.2,0.2,1.5,1.1,1.5c1.1,0,1.3,0,1.3-1.1h0.7v0.2c0,1.1-0.3,1.5-1.9,1.5
		c-1.8,0-2-0.6-2-2.8c0-2.2,0.4-2.8,2-2.8c1.6,0,1.9,0.7,1.9,2.1v0.8L238.2,47.9L238.2,47.9z M240.7,47.3c0-1.1,0-1.6-1.2-1.6
		c-1.2,0-1.2,0.5-1.2,1.6H240.7z"/>
	<path fill="#2B85BB" d="M242.7,45.1h0.7v0.7h0c0.3-0.6,0.7-0.8,1.5-0.8c1.2,0,1.6,0.6,1.6,1.7v3.8h-0.7v-3.6c0-0.6-0.1-1.2-1-1.2
		c-0.8,0-1.4,0.3-1.4,1.4v3.4h-0.7L242.7,45.1L242.7,45.1z"/>
	<path fill="#2B85BB" d="M247.9,45.7h-0.6v-0.6h0.6v-1.2h0.7v1.2h1.7v0.6h-1.7v3.6c0,0.4,0.1,0.6,0.6,0.6c0.5,0,0.7-0.1,0.7-1.3h0.6
		c0,1.7-0.5,1.9-1.3,1.9c-1,0-1.3-0.3-1.3-1.1V45.7z"/>
</g>
<g>
	<path fill="#2B85BB" d="M30.1,39.8V7.9c1.5-2.8,2.8-3.6,4.3-4.6c0,3.7,0,30.3,0,31.4C32.3,36.2,30.4,38.6,30.1,39.8z M32.7,41.5
		c-0.3-0.3-0.8-0.5-1.1-0.7c0.5-1,1.8-3.2,4-4.5l0.6-0.3V8.5c1.1-1.6,3.5-2.2,4.7-2.3c0,2.5,0,29.3,0,31
		C36.8,37.8,33.9,40.3,32.7,41.5z M35.5,46.4c-0.1-2.2-1.1-3.2-1.2-3.4c0.9-1,3.1-3,7.2-3.4l1-0.1V11.1c0.9-0.2,2-0.5,4.1,0.7
		c0,1.7,0,13,0,15.3h2.2V10.6c0,0-3.5-2.6-6.3-1.7v-5L41.3,4c-0.2,0-3,0.3-5.3,2.2V0.2l-1.6,0.9c-0.2,0.1-3.7,2-5.8,6c0,0,0,0,0,0
		v35.2c2.2,0.1,4.7,1.9,4.9,4.2H35.5L35.5,46.4z"/>
</g>
<g>
	<rect y="43.7" fill="#2B85BB" width="2.8" height="2.8"/>
	<rect x="26.4" y="50" fill="#2B85BB" width="2.8" height="2.8"/>
	<rect x="6.6" y="50" fill="#2B85BB" width="2.8" height="2.8"/>
	<rect y="50" fill="#2B85BB" width="2.8" height="2.8"/>
	<rect x="19.8" y="50" fill="#2B85BB" width="2.8" height="2.8"/>
	<rect x="13.2" y="50" fill="#2B85BB" width="2.8" height="2.8"/>
	<rect x="46.4" y="50" fill="#2B85BB" width="2.8" height="2.8"/>
	<rect x="33.2" y="50" fill="#2B85BB" width="2.8" height="2.8"/>
	<rect x="39.8" y="50" fill="#2B85BB" width="2.8" height="2.8"/>
	<rect x="39.8" y="43.8" fill="#2B85BB" width="2.8" height="2.8"/>
	<rect y="37.3" fill="#2B85BB" width="2.8" height="2.8"/>
	<rect x="52.9" y="43.7" fill="#2B85BB" width="2.8" height="2.8"/>
	<rect x="52.9" y="50" fill="#2B85BB" width="2.8" height="2.8"/>
	<rect x="26.4" y="56.5" fill="#2B85BB" width="2.8" height="2.8"/>
	<rect x="6.6" y="56.5" fill="#2B85BB" width="2.8" height="2.8"/>
	<rect y="56.5" fill="#2B85BB" width="2.8" height="2.8"/>
	<rect x="19.8" y="56.5" fill="#2B85BB" width="2.8" height="2.8"/>
	<rect x="13.2" y="56.5" fill="#2B85BB" width="2.8" height="2.8"/>
	<rect x="46.4" y="56.5" fill="#2B85BB" width="2.8" height="2.8"/>
	<rect x="33.2" y="56.5" fill="#2B85BB" width="2.8" height="2.8"/>
	<rect x="39.8" y="56.5" fill="#2B85BB" width="2.8" height="2.8"/>
	<rect x="52.9" y="30.8" fill="#2B85BB" width="2.8" height="2.8"/>
	<rect x="52.9" y="37.3" fill="#2B85BB" width="2.8" height="2.8"/>
	<rect x="52.9" y="24.1" fill="#2B85BB" width="2.8" height="2.8"/>
	<rect x="46.3" y="30.8" fill="#2B85BB" width="2.8" height="2.8"/>
	<rect x="46.3" y="43.7" fill="#2B85BB" width="2.8" height="2.8"/>
	<rect x="46.4" y="37.3" fill="#2B85BB" width="2.8" height="2.8"/>
</g>
<path fill="#2B85BB" d="M21.1,46.2c-3.1,0-12.6,0-14.5,0V10.9c2.5-1.3,4.3-1,5.2-0.6v31l1.2,0.1c4.6,0.3,7.5,2.6,8.7,3.8
	C21.5,45.4,21.3,45.8,21.1,46.2z M23.4,43.2c-1.5-1.4-5-4-9.6-4.6c0-1.9,0-31.6,0-34.4c3,0.4,5.5,3.4,5.5,3.4v29.5l0.8,0.4
	c2.4,1.4,3.9,3.7,4.6,4.9C24.3,42.6,23.8,42.9,23.4,43.2z M26.8,41.2c-0.6-1.2-3.3-4.1-5.8-5.7c0-1.2,0-31.3,0-35.5
	c1.6,1.3,5,5.5,5.8,8.4V41.2z"/>
</svg>
